<?xml version="1.0" encoding="utf-8"?>
<!-- Generator: Adobe Illustrator 25.4.1, SVG Export Plug-In . SVG Version: 6.00 Build 0)  -->
<svg version="1.1" id="Layer_1" xmlns="http://www.w3.org/2000/svg" xmlns:xlink="http://www.w3.org/1999/xlink" x="0px" y="0px"
	 viewBox="0 0 20 20" style="enable-background:new 0 0 20 20;" xml:space="preserve">
<style type="text/css">
	.st0{fill:#FF850E;}
	.st1{fill:#FFFFFF;}
</style>
<path class="st0" d="M10,1.5c0.7,0,1.3,0.4,1.6,1l1.8,3.6l4,0.6c0.7,0.1,1.3,0.6,1.5,1.2c0.2,0.7,0,1.4-0.5,1.9l-2.9,2.8l0.7,4
	c0.1,0.7-0.2,1.4-0.7,1.8c-0.6,0.4-1.3,0.5-1.9,0.1L10,16.7l-3.6,1.9c-0.6,0.3-1.4,0.3-1.9-0.1c-0.6-0.4-0.8-1.1-0.7-1.8l0.7-4
	L1.6,9.8C1.1,9.4,0.9,8.6,1.1,8c0.2-0.7,0.8-1.1,1.5-1.2l4-0.6l1.8-3.6C8.7,1.9,9.3,1.5,10,1.5z"/>
<path class="st1" d="M10,2.7L7.6,7.6L2.2,8.4l3.9,3.8l-0.9,5.4L10,15l4.8,2.5l-0.9-5.4l3.9-3.8l-5.4-0.8L10,2.7 M10,0.7
	c0.8,0,1.5,0.4,1.8,1.1l1.9,4l4.4,0.6c0.8,0.1,1.4,0.6,1.6,1.4c0.2,0.7,0,1.5-0.5,2.1l-3.2,3.1l0.7,4.3c0.1,0.8-0.2,1.5-0.8,2
	c-0.6,0.4-1.4,0.5-2.1,0.2L10,17.3l-3.9,2.1c-0.7,0.4-1.5,0.3-2.1-0.2c-0.6-0.4-0.9-1.2-0.8-2L4,12.9L0.8,9.8
	C0.3,9.3,0.1,8.5,0.3,7.8C0.5,7,1.2,6.5,1.9,6.4l4.4-0.6l2-4C8.6,1.1,9.3,0.7,10,0.7z"/>
</svg>
