<svg xmlns="http://www.w3.org/2000/svg" xmlns:xlink="http://www.w3.org/1999/xlink" width="55.948" height="71.037" viewBox="0 0 55.948 71.037">
  <defs>
    <linearGradient id="linear-gradient" x1="2.138" y1="-0.245" x2="-0.943" y2="1.104" gradientUnits="objectBoundingBox">
      <stop offset="0" stop-color="#03a2b0"/>
      <stop offset="1" stop-color="#38e47d"/>
    </linearGradient>
  </defs>
  <g id="pin" transform="translate(-578 -235.301)">
    <g id="Grupo_5" data-name="Grupo 5" transform="translate(578 235.301)">
      <path id="Trazado_4" data-name="Trazado 4" d="M844.665,346.732l.194.19,19.994,23.233,19.239-23.01.065-.088.344-.317a27.98,27.98,0,1,0-39.836-.008" transform="translate(-836.621 -299.117)" fill="url(#linear-gradient)"/>
      <circle id="Elipse_1" data-name="Elipse 1" cx="22.43" cy="22.43" r="22.43" transform="translate(5.544 5.704)" fill="#fff"/>
    </g>
    <g id="Grupo_8" data-name="Grupo 8" transform="translate(589 250.71)">
      <g id="Grupo_6" data-name="Grupo 6" transform="translate(3.547 8.494)" opacity="0.59">
        <path id="Trazado_5" data-name="Trazado 5" d="M854.28,340.906a17.848,17.848,0,0,0,18.124,1.563c5.709-2.842,9.012-8.983,9.1-15.36,1.657,1.8,2.05,10.313-4.28,15.538C866.777,351.267,855.714,342.969,854.28,340.906Z" transform="translate(-854.28 -327.109)" fill="#9b503d"/>
      </g>
      <path id="Trazado_6" data-name="Trazado 6" d="M856.791,341.933a13.644,13.644,0,0,1-3.983-3.143,13.126,13.126,0,0,1-1.965-12.194,14.823,14.823,0,0,1,8.515-8.218,20.352,20.352,0,0,1,11.984-.6,14.237,14.237,0,0,1,7.855,4.4,10.864,10.864,0,0,1,2.379,6.7,13.337,13.337,0,0,1-1.9,6.9,16.185,16.185,0,0,1-10.434,7.409C864.95,344.124,860.641,344.04,856.791,341.933Z" transform="translate(-850.126 -317.162)" fill="#d4834f"/>
      <path id="Trazado_7" data-name="Trazado 7" d="M852.253,324.318a14.2,14.2,0,0,1-1.585-2.726,3.738,3.738,0,0,1-.25-2.717,2.279,2.279,0,0,1,2.074-1.59c1.746.035,2.727,2.38,4.469,2.509A10.05,10.05,0,0,0,852.253,324.318Z" transform="translate(-850.146 -317.18)" fill="#d4834f"/>
      <path id="Trazado_8" data-name="Trazado 8" d="M854.214,320.339a1.41,1.41,0,0,0-1.091-.263,1.1,1.1,0,0,0-.606,1.078,2.4,2.4,0,0,0,.873,1.856c.662-.74,1.543-1.294,2.155-1.919Z" transform="translate(-850.475 -317.582)" fill="#a7522c"/>
      <path id="Trazado_9" data-name="Trazado 9" d="M882.382,321.491l2.669-1.18a3.108,3.108,0,0,1,2.6-.317,1.882,1.882,0,0,1,.931,1.354,3.292,3.292,0,0,1-.2,1.673,5.36,5.36,0,0,1-2.78,3.022A7.884,7.884,0,0,0,882.382,321.491Z" transform="translate(-854.837 -317.549)" fill="#d4834f"/>
      <path id="Trazado_10" data-name="Trazado 10" d="M872.185,336.141a5.821,5.821,0,0,1-5.874,3.61,5.908,5.908,0,0,1-5.063-4.7c-.381-2.122.445-4.263,1.371-6.211a10.028,10.028,0,0,1,1.932-2.985,3.49,3.49,0,0,1,5.637.437,10.519,10.519,0,0,1,1.278,2.652C872.311,331.261,873.053,333.834,872.185,336.141Z" transform="translate(-851.737 -318.253)" fill="#ffe4ae"/>
      <path id="Trazado_11" data-name="Trazado 11" d="M877.478,329.848l.067.272c.021.085.041.193.061.319a2.155,2.155,0,0,1,.048.429,2.265,2.265,0,0,1-.029.521.738.738,0,0,1-.025.15l-.037.131a1.774,1.774,0,0,1-.127.294,1.663,1.663,0,0,1-.433.5,1.23,1.23,0,0,1-.689.243l-.152,0c-.059-.008-.129-.025-.193-.04a1.272,1.272,0,0,1-.331-.146,1.626,1.626,0,0,1-.481-.459,1.888,1.888,0,0,1-.153-.274c-.023-.054-.036-.078-.063-.156l-.086-.377c-.011-.086-.015-.176-.022-.258a2.054,2.054,0,0,1,0-.436c.007-.127.016-.237.029-.325l.039-.279a.089.089,0,0,1,.1-.075.09.09,0,0,1,.076.085l.013.278a5.692,5.692,0,0,0,.062.7c.012.068.02.138.035.213l.12.366a1,1,0,0,1,.049.091,1.517,1.517,0,0,0,.128.207,1.437,1.437,0,0,0,.371.333.88.88,0,0,0,.218.093l.1.027.152.005a.853.853,0,0,0,.432-.154,1.272,1.272,0,0,0,.337-.365,1.859,1.859,0,0,0,.112-.211l.046-.127a.559.559,0,0,0,.026-.108,1.942,1.942,0,0,0,.061-.453,4.8,4.8,0,0,0-.016-.712l-.021-.278a.089.089,0,0,1,.175-.027Z" transform="translate(-853.733 -319.005)" fill="#7a3b35"/>
      <path id="Trazado_12" data-name="Trazado 12" d="M861.216,328.865l-.093.263c-.028.083-.071.184-.123.3a2.135,2.135,0,0,1-.2.385,2.243,2.243,0,0,1-.31.423.761.761,0,0,1-.1.113l-.1.09a1.8,1.8,0,0,1-.271.173,1.378,1.378,0,0,1-1.349.013l-.124-.089a1.931,1.931,0,0,1-.138-.139,1.284,1.284,0,0,1-.2-.3,1.632,1.632,0,0,1-.134-.957c.011-.057.013-.085.033-.166l.13-.363c.037-.079.081-.156.12-.229a2.2,2.2,0,0,1,.237-.368c.074-.1.14-.191.2-.259l.181-.215a.1.1,0,0,1,.144-.013.1.1,0,0,1,.02.133l-.144.237a4.949,4.949,0,0,0-.336.619c-.028.064-.061.126-.089.2l-.1.372c0,.007-.006.07-.008.1a2.113,2.113,0,0,0-.006.244,1.319,1.319,0,0,0,.128.483.857.857,0,0,0,.133.2c.026.025.043.05.073.077l.126.085a.86.86,0,0,0,.446.108,1.259,1.259,0,0,0,.481-.126,1.917,1.917,0,0,0,.2-.12l.108-.081c.021-.009.054-.053.08-.077a1.978,1.978,0,0,0,.3-.345,4.886,4.886,0,0,0,.37-.607l.133-.245a.1.1,0,0,1,.186.084Z" transform="translate(-851.284 -318.672)" fill="#7a3b35"/>
      <path id="Trazado_13" data-name="Trazado 13" d="M878.752,335.231c.01.539.625.965,1.373.951s1.347-.463,1.337-1-.625-.966-1.374-.951S878.742,334.692,878.752,335.231Z" transform="translate(-854.307 -319.655)" fill="#c55053"/>
      <path id="Trazado_14" data-name="Trazado 14" d="M854.424,332.814c.01.54.625.966,1.373.951s1.347-.463,1.337-1-.625-.965-1.374-.951S854.414,332.275,854.424,332.814Z" transform="translate(-850.754 -319.302)" fill="#c55053"/>
      <path id="Trazado_15" data-name="Trazado 15" d="M867.679,335.251h-.015a.215.215,0,0,1-.2-.229l.24-3.424a.213.213,0,0,1,.229-.2.215.215,0,0,1,.2.229l-.24,3.424A.214.214,0,0,1,867.679,335.251Z" transform="translate(-852.659 -319.241)" fill="#64302c"/>
      <path id="Trazado_16" data-name="Trazado 16" d="M868.993,334.752l-.053.14a.742.742,0,0,1-.089.161.806.806,0,0,1-.155.2,1.348,1.348,0,0,1-.219.19,1.436,1.436,0,0,1-.283.163,1.6,1.6,0,0,1-.338.1,1.743,1.743,0,0,1-.367.023,1.569,1.569,0,0,1-.351-.074,1.4,1.4,0,0,1-.33-.153,1.493,1.493,0,0,1-.437-.432.753.753,0,0,1-.114-.216.816.816,0,0,1-.058-.177c-.021-.1-.027-.159-.027-.159a.084.084,0,0,1,.073-.092.087.087,0,0,1,.08.038l.009.014s.028.045.068.12a1.207,1.207,0,0,0,.213.278,1.429,1.429,0,0,0,.389.283,1.513,1.513,0,0,0,.239.091,1.342,1.342,0,0,0,.275.051,1.577,1.577,0,0,0,.531-.07,2.355,2.355,0,0,0,.234-.1,1.011,1.011,0,0,0,.195-.122,1.191,1.191,0,0,0,.256-.232l.094-.116a.1.1,0,0,1,.135-.014A.1.1,0,0,1,868.993,334.752Z" transform="translate(-852.47 -319.683)" fill="#64302c"/>
      <path id="Trazado_17" data-name="Trazado 17" d="M885.3,322.071a1.408,1.408,0,0,1,1.12-.058,1.1,1.1,0,0,1,.4,1.172,2.4,2.4,0,0,1-1.2,1.663c-.513-.849-1.278-1.555-1.763-2.283Z" transform="translate(-855.052 -317.856)" fill="#a7522c"/>
      <path id="Trazado_18" data-name="Trazado 18" d="M869.821,329.315a3.407,3.407,0,0,0-1.007-.354c-.451-.079-.643.61-.19.689a2.784,2.784,0,0,1,.837.282C869.867,330.149,870.228,329.532,869.821,329.315Z" transform="translate(-852.79 -318.884)" fill="#7a3b35"/>
      <path id="Trazado_19" data-name="Trazado 19" d="M869.448,330.572a1.051,1.051,0,0,0,.377-1.086,1.236,1.236,0,0,0-1.012-.6,8.207,8.207,0,0,0-1.9-.107c-.465.027-1.014.16-1.175.6a1.046,1.046,0,0,0,.273.984,2.364,2.364,0,0,0,3.44.211Z" transform="translate(-852.4 -318.857)" fill="#7a3b35"/>
      <path id="Trazado_20" data-name="Trazado 20" d="M866.4,329.184l.129.036c.08.02.207.062.336.087l.209.044c.071.02.159.017.24.035a3.509,3.509,0,0,0,.529.044,4.669,4.669,0,0,0,.538-.009c.173-.007.336-.02.477-.033l.476-.039a.139.139,0,0,1,.111.234l-.042.044a1.009,1.009,0,0,1-.116.1,2.376,2.376,0,0,1-.329.21,2.08,2.08,0,0,1-.51.184,1.638,1.638,0,0,1-.3.053l-.322.017-.325-.037a1.441,1.441,0,0,1-.308-.076,1.383,1.383,0,0,1-.281-.11,2.256,2.256,0,0,1-.243-.14,1.5,1.5,0,0,1-.284-.26,1.072,1.072,0,0,1-.094-.118l-.037-.056a.136.136,0,0,1,.15-.206Z" transform="translate(-852.478 -318.917)" fill="#fff"/>
      <g id="Grupo_7" data-name="Grupo 7" transform="translate(11.635 6.381)" opacity="0.41">
        <path id="Trazado_21" data-name="Trazado 21" d="M865.446,326.3a7.235,7.235,0,0,0-1.7,1.1,7.281,7.281,0,0,1,1.179-1.55,3.49,3.49,0,0,1,5.637.437,8.238,8.238,0,0,1,.944,1.782,5.791,5.791,0,0,0-2.362-1.974A4.79,4.79,0,0,0,865.446,326.3Z" transform="translate(-863.751 -324.634)" fill="#fff"/>
      </g>
      <path id="Trazado_22" data-name="Trazado 22" d="M871.713,320.888a2.275,2.275,0,0,0-.45,1.313c-.006.184.28.184.285,0a2.017,2.017,0,0,1,.412-1.168C872.07,320.884,871.821,320.742,871.713,320.888Z" transform="translate(-853.213 -317.697)" fill="#dea47b"/>
      <path id="Trazado_23" data-name="Trazado 23" d="M870.117,318.921q-.085.412-.171.823c-.038.18.238.257.276.076l.171-.823C870.431,318.818,870.155,318.741,870.117,318.921Z" transform="translate(-853.021 -317.404)" fill="#dea47b"/>
      <path id="Trazado_24" data-name="Trazado 24" d="M867.6,319.009q.037.63.073,1.26c.011.184.3.184.286,0q-.037-.63-.073-1.26C867.877,318.827,867.591,318.826,867.6,319.009Z" transform="translate(-852.679 -317.412)" fill="#dea47b"/>
      <path id="Trazado_25" data-name="Trazado 25" d="M869.363,321.9l-.295,1.015a.143.143,0,0,0,.276.076l.295-1.014A.143.143,0,0,0,869.363,321.9Z" transform="translate(-852.892 -317.839)" fill="#dea47b"/>
      <path id="Trazado_26" data-name="Trazado 26" d="M867.347,322.781l.012.63a.143.143,0,0,0,.286,0l-.012-.63A.143.143,0,0,0,867.347,322.781Z" transform="translate(-852.641 -317.962)" fill="#dea47b"/>
      <path id="Trazado_27" data-name="Trazado 27" d="M865.984,323.875c.049.272.1.544.148.816.033.181.308.1.276-.076-.049-.272-.1-.544-.148-.816C866.227,323.618,865.951,323.7,865.984,323.875Z" transform="translate(-852.442 -318.116)" fill="#dea47b"/>
      <path id="Trazado_28" data-name="Trazado 28" d="M870.872,324.069a.72.72,0,0,0-.3.792.143.143,0,0,0,.276-.076.423.423,0,0,1,.169-.47C871.167,324.211,871.024,323.964,870.872,324.069Z" transform="translate(-853.109 -318.167)" fill="#dea47b"/>
      <path id="Trazado_29" data-name="Trazado 29" d="M872.128,318.528a1.628,1.628,0,0,1,.544-.751c.144-.111,0-.359-.144-.247a1.967,1.967,0,0,0-.675.921C871.79,318.627,872.067,318.7,872.128,318.528Z" transform="translate(-853.298 -317.212)" fill="#dea47b"/>
      <path id="Trazado_30" data-name="Trazado 30" d="M866.005,318.632a1.9,1.9,0,0,0-.581-.926c-.138-.12-.341.08-.2.2a1.624,1.624,0,0,1,.507.8A.143.143,0,0,0,866.005,318.632Z" transform="translate(-852.324 -317.236)" fill="#dea47b"/>
      <path id="Trazado_31" data-name="Trazado 31" d="M865.765,321.728a3.882,3.882,0,0,0-.494-1.407.143.143,0,0,0-.248.144,3.668,3.668,0,0,1,.465,1.339C865.515,321.986,865.791,321.909,865.765,321.728Z" transform="translate(-852.299 -317.613)" fill="#dea47b"/>
    </g>
    <path id="Trazado_32" data-name="Trazado 32" d="M868.69,363.165l1.538,3.117,3.44.5-2.489,2.426.588,3.426-3.077-1.617-3.077,1.617.588-3.426-2.489-2.426,3.44-.5Z" transform="translate(-262.712 -74.642)" fill="#fff"/>
  </g>
</svg>
